<?xml version="1.0" encoding="UTF-8" standalone="no"?>
<svg
   xmlns:dc="http://purl.org/dc/elements/1.1/"
   xmlns:cc="http://creativecommons.org/ns#"
   xmlns:rdf="http://www.w3.org/1999/02/22-rdf-syntax-ns#"
   xmlns:svg="http://www.w3.org/2000/svg"
   xmlns="http://www.w3.org/2000/svg"
   xmlns:sodipodi="http://sodipodi.sourceforge.net/DTD/sodipodi-0.dtd"
   xmlns:inkscape="http://www.inkscape.org/namespaces/inkscape"
   data-name="Layer 1"
   width="986"
   height="448.75937"
   viewBox="0 0 986 448.75938"
   version="1.1"
   id="svg937"
   sodipodi:docname="smc_apperror_undraw_fixing_bugs_w7gi.svg"
   inkscape:version="1.0.1 (c497b03c, 2020-09-10)">
  <metadata
     id="metadata943">
    <rdf:RDF>
      <cc:Work
         rdf:about="">
        <dc:format>image/svg+xml</dc:format>
        <dc:type
           rdf:resource="http://purl.org/dc/dcmitype/StillImage" />
        <dc:title></dc:title>
      </cc:Work>
    </rdf:RDF>
  </metadata>
  <defs
     id="defs941" />
  <sodipodi:namedview
     pagecolor="#ffffff"
     bordercolor="#666666"
     borderopacity="1"
     objecttolerance="10"
     gridtolerance="10"
     guidetolerance="10"
     inkscape:pageopacity="0"
     inkscape:pageshadow="2"
     inkscape:window-width="1440"
     inkscape:window-height="847"
     id="namedview939"
     showgrid="false"
     fit-margin-left="296"
     fit-margin-top="0"
     fit-margin-right="0"
     fit-margin-bottom="0"
     inkscape:zoom="1.0318841"
     inkscape:cx="400.66292"
     inkscape:cy="220.50319"
     inkscape:window-x="0"
     inkscape:window-y="205"
     inkscape:window-maximized="1"
     inkscape:current-layer="svg937" />
  <path
     d="m 507.81292,420.1109 c 4.66847,-10.08358 9.33339,-20.31666 11.35946,-31.24223 2.02607,-10.92557 1.17569,-22.78293 -4.627,-32.25932 -5.80269,-9.47639 -17.22813,-15.90241 -28.13153,-13.76022 -8.95532,1.75945 -16.14605,8.81268 -20.35651,16.90992 -4.21046,8.09724 -5.89975,17.23014 -7.53734,26.20855 -0.52917,-10.2001 -1.0896,-20.56436 -4.478,-30.19975 -3.3884,-9.63539 -10.06045,-18.61463 -19.5694,-22.34313 -9.50895,-3.7285 -21.87886,-0.79648 -26.89061,8.1032 -7.06074,12.53818 2.30155,30.12541 -5.81734,42.0058 -1.39265,-11.917 -13.85471,-21.33234 -25.69879,-19.4159 -11.84408,1.91644 -20.70109,14.78128 -18.2646,26.5294 1.44978,6.99047 6.21931,12.93631 11.92156,17.232 5.70225,4.29569 12.33421,9.27436 18.89475,12.09 z"
     fill="#f2f2f2"
     id="path833" />
  <path
     d="m 364.01987,372.53741 c 9.40825,3.28851 18.903,6.61425 27.49226,11.75558 7.698,4.60786 14.553,10.81187 18.88231,18.7569 a 33.35556,33.35556 0 0 1 4.12583,13.85861 c 0.0625,1.01759 1.65458,1.02469 1.59164,0 -0.55661,-9.061 -4.97238,-17.353 -11.087,-23.91075 -6.704,-7.18984 -15.39158,-12.10041 -24.3611,-15.91043 -5.31821,-2.259 -10.76859,-4.17895 -16.2208,-6.08468 -0.96887,-0.33866 -1.3854,1.19842 -0.42311,1.53477 z"
     fill="#ffffff"
     id="path835" />
  <path
     d="m 418.28745,335.00446 a 143.38254,143.38254 0 0 1 13.79113,30.61557 145.11672,145.11672 0 0 1 6.361,32.96846 143.30543,143.30543 0 0 1 0.15151,18.83685 c -0.0591,1.02328 1.53278,1.01989 1.59163,0 a 145.1941,145.1941 0 0 0 -2.04032,-33.82049 146.92647,146.92647 0 0 0 -9.769,-32.44022 143.25,143.25 0 0 0 -8.71162,-16.9635 0.79641,0.79641 0 0 0 -1.37432,0.80333 z"
     fill="#ffffff"
     id="path837" />
  <path
     d="m 496.188,344.14703 a 232.04359,232.04359 0 0 0 -17.11648,57.57847 q -1.34225,8.36487 -2.07791,16.81182 c -0.089,1.02023 1.50317,1.01426 1.59163,0 a 231.20919,231.20919 0 0 1 12.73788,-58.02528 q 2.83382,-7.89209 6.23921,-15.56169 c 0.412,-0.92791 -0.959,-1.73862 -1.37433,-0.80332 z"
     fill="#ffffff"
     id="path839" />
  <rect
     x="441.94333"
     y="-772.69269"
     width="9.88235"
     height="46.588242"
     transform="rotate(89.25872)"
     fill="#e6e6e6"
     id="rect841" />
  <path
     d="m 795.02652,443.99584 -6.65257,-0.0194 -4.11239,-7.33712 4.445,-7.31237 6.1811,0.0179 a 11.99893,11.99893 0 1 0 0.13889,14.651 z"
     fill="#e6e6e6"
     id="path843" />
  <path
     d="m 715.20833,443.99584 6.65258,-0.0194 4.11239,-7.33712 -4.445,-7.31237 -6.18109,0.0179 a 11.99892,11.99892 0 1 1 -0.1389,14.651 z"
     fill="#e6e6e6"
     id="path845" />
  <path
     d="M 985,420.96918 H 297 a 1,1 0 0 1 0,-2 h 688 a 1,1 0 0 1 0,2 z"
     fill="#3f3d56"
     id="path847" />
  <circle
     cx="836.48621"
     cy="197.96918"
     r="33"
     fill="#2f2e41"
     id="circle849" />
  <polygon
     points="603.871,391.124 600.12,373.423 553.859,383.226 556.401,395.219 "
     fill="#ffb8b8"
     id="polygon851"
     transform="translate(296)" />
  <path
     d="m 846.16554,420.70966 -7.98774,-37.69367 14.56346,-3.08617 4.90158,23.13023 a 14.88685,14.88685 0 0 1 -11.47728,17.64961 v 0 z"
     fill="#2f2e41"
     id="path853" />
  <polygon
     points="473.673,378.264 481.559,361.979 524.12,382.586 518.777,393.621 "
     fill="#ffb8b8"
     id="polygon855"
     transform="translate(296)" />
  <path
     d="m 807.8084,399.97577 10.30371,-21.28066 13.39892,6.48751 -16.79122,34.67958 v 0 a 14.88685,14.88685 0 0 1 -6.91141,-19.88643 z"
     fill="#2f2e41"
     id="path857" />
  <path
     d="m 731.25925,360.79322 a 10.74272,10.74272 0 0 0 12.70881,-10.48016 l 74.37388,-68.5711 -18.47,-14.30549 -67.33743,71.94341 a 10.80091,10.80091 0 0 0 -1.27527,21.41334 z"
     fill="#ffb8b8"
     id="path859" />
  <circle
     cx="832.34448"
     cy="207.89832"
     r="24.561029"
     fill="#ffb8b8"
     id="circle861" />
  <path
     d="m 854.38612,352.27289 c -17.22851,4.9e-4 -37.978,-3.62842 -50.77856,-18.477 l -0.28833,-0.33447 0.29663,-0.32813 c 0.0967,-0.10693 9.51367,-10.86865 0.11084,-30.061 l -12.9277,3.97746 -12.8704,-16.98877 7.12964,-21.38916 29.17749,-23.50391 a 26.75074,26.75074 0 0 1 14.6106,-5.78906 80.21058,80.21058 0 0 0 27.78467,-7.91309 27.906,27.906 0 0 1 12.7998,-2.79834 l 0.57373,0.0161 a 9.95022,9.95022 0 0 1 9.64063,10.70752 c -1.97852,25.62989 -5.47242,87.54346 4.7915,108.86133 l 0.26514,0.55078 -0.59229,0.15039 a 136.1132,136.1132 0 0 1 -29.72339,3.31934 z"
     fill="#f15b38"
     id="path863" />
  <path
     d="m 806.98622,333.46918 c 0,0 -65,-6 -72,13 -7,19 1,28 13,32 12,4 41,9 41,9 l 13,-16 34,2 c 0,0 37.88482,21.9732 48.35975,45.47377 a 30.76193,30.76193 0 0 0 25.77746,18.23865 c 8.398,0.58447 15.86279,-2.5874 15.86279,-15.7124 0,-30 -42,-73 -42,-73 z"
     fill="#2f2e41"
     id="path865" />
  <path
     d="m 757.48622,362.96918 c 0,0 17,-5 44,8"
     fill="#2f2e41"
     id="path867" />
  <path
     d="m 807.84286,192.23507 a 73.04115,73.04115 0 0 0 31.59919,10.4119 l -3.33084,-3.991 a 24.4775,24.4775 0 0 0 7.5611,1.50142 8.28066,8.28066 0 0 0 6.74954,-3.15917 7.70229,7.70229 0 0 0 0.51556,-7.115 14.58851,14.58851 0 0 0 -4.58936,-5.7385 27.32286,27.32286 0 0 0 -25.43066,-4.54493 16.32974,16.32974 0 0 0 -7.59542,4.8722 9.23578,9.23578 0 0 0 -1.86256,8.56086"
     fill="#2f2e41"
     id="path869" />
  <path
     d="M 836.30911,172.60367 A 75.48468,75.48468 0 0 1 855.446,146.08229 c 5.292,-4.70276 11.47246,-8.74308 18.44626,-9.9627 6.9738,-1.21962 14.83309,0.86982 19.11055,6.51116 3.49772,4.613 4.15213,10.79276 3.76672,16.569 -0.38541,5.77624 -1.67632,11.49651 -1.5527,17.28428 a 35.46794,35.46794 0 0 0 50.52712,31.351 c -6.02152,3.32885 -10.714,8.59777 -16.3048,12.60812 -5.5908,4.01035 -12.96272,6.7601 -19.31233,4.11012 -6.71812,-2.80378 -9.79963,-10.41937 -12.20607,-17.28984 L 887.189,176.6239 c -1.82434,-5.20852 -3.739,-10.57156 -7.462,-14.6454 -3.723,-4.07384 -9.76461,-6.5568 -14.88927,-4.50871 -3.884,1.55225 -6.41275,5.25755 -8.63029,8.804 -2.21754,3.54645 -4.557,7.31984 -8.30359,9.17935 -3.74659,1.85951 -9.29837,0.7147 -10.52292,-3.28471"
     fill="#2f2e41"
     id="path871" />
  <rect
     x="343.26376"
     y="822.63129"
     width="9.88235"
     height="46.588242"
     transform="rotate(-45.74128)"
     fill="#e6e6e6"
     id="rect873" />
  <path
     d="m 862.51005,354.28904 a 9.88235,9.88235 0 1 0 13.97459,-0.18081 9.88238,9.88238 0 0 0 -13.97459,0.18081 z m 10.111,9.8527 a 4.23529,4.23529 0 1 1 -0.0775,-5.98911 4.2354,4.2354 0 0 1 0.0775,5.98911 z"
     fill="#e6e6e6"
     id="path875" />
  <path
     d="m 825.47962,307.92849 4.69037,4.7178 -2.28023,8.096 -8.3137,2.02755 -4.358,-4.38337 a 11.99891,11.99891 0 1 0 10.26158,-10.458 z"
     fill="#e6e6e6"
     id="path877" />
  <path
     d="m 844.736,352.35883 a 11.579,11.579 0 0 1 -1.26831,-0.0703 11.02341,11.02341 0 0 1 -9.68018,-9.68115 11.00337,11.00337 0 0 1 10.93115,-12.25 10.62483,10.62483 0 0 1 1.46607,0.10938 l 33.57859,-35.74514 -3.50513,-11.68457 17.605,-7.8916 4.93384,12.06006 a 20.48972,20.48972 0 0 1 -6.17724,23.67236 l -36.96119,29.40088 a 10.25885,10.25885 0 0 1 0.0601,1.07861 11.01824,11.01824 0 0 1 -3.66382,8.19678 10.87186,10.87186 0 0 1 -7.31884,2.80471 z"
     fill="#ffb8b8"
     id="path879" />
  <path
     d="m 870.98622,233.46918 v 0 a 9.45335,9.45335 0 0 1 12.628,5.1563 l 17.372,43.84371 -27,18 z"
     fill="#f15b38"
     id="path881" />
  <path
     d="M 744.48622,243.70688 V 25.2623 A 25.29812,25.29812 0 0 0 719.22392,0 H 375.95386 a 25.29813,25.29813 0 0 0 -25.2623,25.2623 v 218.44458 a 25.29813,25.29813 0 0 0 25.2623,25.2623 h 343.27006 a 25.29812,25.29812 0 0 0 25.2623,-25.2623 z M 375.95386,265.99714 A 22.31743,22.31743 0 0 1 353.6636,243.70688 V 25.2623 A 22.31744,22.31744 0 0 1 375.95386,2.97203 h 343.27006 a 22.31744,22.31744 0 0 1 22.29027,22.29027 v 218.44458 a 22.31744,22.31744 0 0 1 -22.29027,22.29026 z"
     fill="#3f3d56"
     id="path883" />
  <path
     d="M 741.51419,39.30328 H 353.6636 a 1.486,1.486 0 1 1 0,-2.972 h 387.85059 a 1.486,1.486 0 0 1 0,2.972 z"
     fill="#3f3d56"
     id="path885" />
  <circle
     cx="378.9259"
     cy="20.804251"
     r="7.43009"
     fill="#f15b38"
     id="circle887" />
  <circle
     cx="404.1882"
     cy="20.804251"
     r="7.43009"
     fill="#f15b38"
     id="circle889" />
  <circle
     cx="429.4505"
     cy="20.804251"
     r="7.43009"
     fill="#f15b38"
     id="circle891" />
  <path
     d="m 484.97867,199.23166 a 0.99974,0.99974 0 0 1 -1,-1 c 0,-10.42675 -4.5708,-16.24218 -11.94531,-22.24707 a 0.99992,0.99992 0 1 1 1.2627,-1.55078 c 7.83007,6.375 12.68261,12.58008 12.68261,23.79785 a 0.99973,0.99973 0 0 1 -1,1 z"
     id="path893" />
  <path
     d="m 399.31656,199.23166 a 0.99974,0.99974 0 0 1 -1,-1 c 0,-11.21777 4.85254,-17.42285 12.68262,-23.79785 a 0.99992,0.99992 0 1 1 1.2627,1.55078 c -7.37452,6.00489 -11.94532,11.82129 -11.94532,22.24707 a 0.99973,0.99973 0 0 1 -1,1 z"
     id="path895" />
  <path
     d="m 476.41324,130.70139 a 1,1 0 0 1 -0.63183,-1.77539 c 7.58056,-6.17139 8.19726,-14.93848 8.19726,-24.92334 a 1,1 0 0 1 2,0 c 0,10.50488 -0.67236,19.74756 -8.93457,26.47412 a 0.99381,0.99381 0 0 1 -0.63086,0.22461 z"
     id="path897" />
  <path
     d="m 407.88248,130.16623 a 0.99383,0.99383 0 0 1 -0.63086,-0.22461 c -8.26269,-6.72705 -8.93506,-15.72705 -8.93506,-25.939 a 1,1 0 0 1 2,0 c 0,10.03662 0.60352,18.20557 8.19776,24.38818 a 1,1 0 0 1 -0.63184,1.77539 z"
     id="path899" />
  <path
     d="m 497.82828,152.15207 h -21.41552 a 1,1 0 0 1 0,-2 h 21.41552 a 1,1 0 1 1 0,2 z"
     id="path901" />
  <path
     d="m 407.883,152.15207 h -21.41556 a 1,1 0 0 1 0,-2 H 407.883 a 1,1 0 0 1 0,2 z"
     id="path903" />
  <path
     d="m 442.14762,194.94846 a 0.99974,0.99974 0 0 1 -1,-1 v -68.52978 a 1,1 0 0 1 2,0 v 68.52978 a 0.99974,0.99974 0 0 1 -1,1 z"
     id="path905" />
  <path
     d="M 442.14762,194.94846 A 35.30522,35.30522 0 0 1 406.883,159.68332 v -25.71728 c 0,-16.46826 13.5127,-26.69873 35.26465,-26.69873 22.74121,0 35.26514,9.48193 35.26514,26.69873 v 25.71728 a 35.30533,35.30533 0 0 1 -35.26517,35.26514 z m 0,-85.68115 c -16.08106,0 -33.26465,6.48828 -33.26465,24.69873 v 25.71728 a 33.2649,33.2649 0 1 0 66.52979,0 v -25.71728 c 0,-21.48975 -20.84176,-24.69873 -33.26514,-24.69873 z"
     id="path907" />
  <path
     d="m 421.651,113.44114 a 1.0002,1.0002 0 0 1 -0.9292,-0.62989 14.08794,14.08794 0 0 1 -0.98828,-4.53173 22.47566,22.47566 0 0 1 22.35548,-22.40918 h 0.11475 a 22.46679,22.46679 0 0 1 22.35938,22.35693 12.22735,12.22735 0 0 1 -0.91016,4.21094 1,1 0 0 1 -1.84961,-0.76075 10.19507,10.19507 0 0 0 0.76074,-3.4873 20.45407,20.45407 0 0 0 -20.36279,-20.31982 h -0.10986 a 20.46143,20.46143 0 0 0 -20.35938,20.36181 12.07569,12.07569 0 0 0 0.84717,3.83789 1.00121,1.00121 0 0 1 -0.92822,1.3711 z"
     id="path909" />
  <path
     d="m 543.71045,108.00268 h -12 a 7,7 0 0 1 0,-14 h 12 a 7,7 0 0 1 0,14 z"
     fill="#cccccc"
     id="path911" />
  <path
     d="m 625.71045,137.50268 h -12 a 7,7 0 0 1 0,-14 h 12 a 7,7 0 0 1 0,14 z"
     fill="#cccccc"
     id="path913" />
  <path
     d="m 663.71045,137.50268 h -12 a 7,7 0 0 1 0,-14 h 12 a 7,7 0 0 1 0,14 z"
     fill="#cccccc"
     id="path915" />
  <path
     d="m 701.71045,137.50268 h -12 a 7,7 0 0 1 0,-14 h 12 a 7,7 0 0 1 0,14 z"
     fill="#cccccc"
     id="path917" />
  <path
     d="m 626.71045,108.50268 h -56 a 7,7 0 0 1 0,-14 h 56 a 7,7 0 0 1 0,14 z"
     fill="#cccccc"
     id="path919" />
  <path
     d="m 587.71045,136.50268 h -56 a 7,7 0 0 1 0,-14 h 56 a 7,7 0 0 1 0,14 z"
     fill="#cccccc"
     id="path921" />
  <path
     d="m 697.71045,108.50268 h -43 a 7,7 0 0 1 0,-14 h 43 a 7,7 0 0 1 0,14 z"
     fill="#cccccc"
     id="path923" />
  <path
     d="m 543.71045,167.00268 h -12 a 7,7 0 0 1 0,-14 h 12 a 7,7 0 0 1 0,14 z"
     fill="#cccccc"
     id="path925" />
  <path
     d="m 626.71045,167.50268 h -56 a 7,7 0 0 1 0,-14 h 56 a 7,7 0 0 1 0,14 z"
     fill="#cccccc"
     id="path927" />
  <path
     d="m 697.71045,167.50268 h -43 a 7,7 0 0 1 0,-14 h 43 a 7,7 0 0 1 0,14 z"
     fill="#cccccc"
     id="path929" />
  <path
     d="m 678.71045,191.00268 a 7.00786,7.00786 0 0 1 7,-7 h 12 a 7,7 0 0 1 0,14 h -12 a 7.00785,7.00785 0 0 1 -7,-7 z"
     fill="#cccccc"
     id="path931" />
  <path
     d="m 595.71045,191.50268 a 7.00786,7.00786 0 0 1 7,-7 h 56 a 7,7 0 0 1 0,14 h -56 a 7.00785,7.00785 0 0 1 -7,-7 z"
     fill="#cccccc"
     id="path933" />
  <path
     d="m 524.71045,191.50268 a 7.00786,7.00786 0 0 1 7,-7 h 43 a 7,7 0 0 1 0,14 h -43 a 7.00785,7.00785 0 0 1 -7,-7 z"
     fill="#cccccc"
     id="path935" />
</svg>
